<mxfile host="app.diagrams.net" modified="2022-08-31T08:48:10.124Z" agent="5.0 (Windows NT 10.0; Win64; x64) AppleWebKit/537.36 (KHTML, like Gecko) Chrome/104.0.0.0 Safari/537.36" etag="V6ndYIGKIPQDvMTdveO6" version="20.2.6" type="github">
  <diagram id="C5RBs43oDa-KdzZeNtuy" name="Page-1">
    <mxGraphModel dx="2249" dy="794" grid="1" gridSize="10" guides="1" tooltips="1" connect="1" arrows="1" fold="1" page="1" pageScale="1" pageWidth="827" pageHeight="1169" math="0" shadow="0">
      <root>
        <mxCell id="WIyWlLk6GJQsqaUBKTNV-0" />
        <mxCell id="WIyWlLk6GJQsqaUBKTNV-1" parent="WIyWlLk6GJQsqaUBKTNV-0" />
        <mxCell id="RebpLqzrNjrWu-su3GIu-4" style="edgeStyle=orthogonalEdgeStyle;rounded=0;orthogonalLoop=1;jettySize=auto;html=1;entryX=0;entryY=0.5;entryDx=0;entryDy=0;" edge="1" parent="WIyWlLk6GJQsqaUBKTNV-1" source="WIyWlLk6GJQsqaUBKTNV-3" target="RebpLqzrNjrWu-su3GIu-0">
          <mxGeometry relative="1" as="geometry" />
        </mxCell>
        <mxCell id="RebpLqzrNjrWu-su3GIu-5" value="A1 上报预警事件" style="edgeLabel;html=1;align=center;verticalAlign=middle;resizable=0;points=[];" vertex="1" connectable="0" parent="RebpLqzrNjrWu-su3GIu-4">
          <mxGeometry x="-0.2714" y="3" relative="1" as="geometry">
            <mxPoint as="offset" />
          </mxGeometry>
        </mxCell>
        <mxCell id="RebpLqzrNjrWu-su3GIu-6" style="edgeStyle=orthogonalEdgeStyle;rounded=0;orthogonalLoop=1;jettySize=auto;html=1;entryX=0.5;entryY=0;entryDx=0;entryDy=0;" edge="1" parent="WIyWlLk6GJQsqaUBKTNV-1" source="WIyWlLk6GJQsqaUBKTNV-3" target="RebpLqzrNjrWu-su3GIu-0">
          <mxGeometry relative="1" as="geometry">
            <Array as="points">
              <mxPoint x="90" y="300" />
              <mxPoint x="350" y="300" />
            </Array>
          </mxGeometry>
        </mxCell>
        <mxCell id="RebpLqzrNjrWu-su3GIu-7" value="A2 预警事件协同" style="edgeLabel;html=1;align=center;verticalAlign=middle;resizable=0;points=[];" vertex="1" connectable="0" parent="RebpLqzrNjrWu-su3GIu-6">
          <mxGeometry x="0.0929" y="3" relative="1" as="geometry">
            <mxPoint x="-1" as="offset" />
          </mxGeometry>
        </mxCell>
        <mxCell id="RebpLqzrNjrWu-su3GIu-17" style="edgeStyle=orthogonalEdgeStyle;rounded=0;orthogonalLoop=1;jettySize=auto;html=1;entryX=0.5;entryY=0;entryDx=0;entryDy=0;entryPerimeter=0;" edge="1" parent="WIyWlLk6GJQsqaUBKTNV-1" source="WIyWlLk6GJQsqaUBKTNV-3" target="RebpLqzrNjrWu-su3GIu-13">
          <mxGeometry relative="1" as="geometry">
            <Array as="points">
              <mxPoint x="90" y="260" />
              <mxPoint x="812" y="260" />
            </Array>
          </mxGeometry>
        </mxCell>
        <mxCell id="RebpLqzrNjrWu-su3GIu-18" value="B1 浙政钉工作通知" style="edgeLabel;html=1;align=center;verticalAlign=middle;resizable=0;points=[];" vertex="1" connectable="0" parent="RebpLqzrNjrWu-su3GIu-17">
          <mxGeometry x="-0.5986" y="-1" relative="1" as="geometry">
            <mxPoint as="offset" />
          </mxGeometry>
        </mxCell>
        <mxCell id="RebpLqzrNjrWu-su3GIu-19" style="edgeStyle=orthogonalEdgeStyle;rounded=0;orthogonalLoop=1;jettySize=auto;html=1;entryX=0.25;entryY=0.1;entryDx=0;entryDy=0;entryPerimeter=0;" edge="1" parent="WIyWlLk6GJQsqaUBKTNV-1" source="WIyWlLk6GJQsqaUBKTNV-3" target="RebpLqzrNjrWu-su3GIu-13">
          <mxGeometry relative="1" as="geometry">
            <Array as="points">
              <mxPoint x="90" y="220" />
              <mxPoint x="812" y="220" />
              <mxPoint x="812" y="331" />
            </Array>
          </mxGeometry>
        </mxCell>
        <mxCell id="RebpLqzrNjrWu-su3GIu-20" value="C1 短信通知" style="edgeLabel;html=1;align=center;verticalAlign=middle;resizable=0;points=[];" vertex="1" connectable="0" parent="RebpLqzrNjrWu-su3GIu-19">
          <mxGeometry x="-0.235" y="-2" relative="1" as="geometry">
            <mxPoint as="offset" />
          </mxGeometry>
        </mxCell>
        <mxCell id="WIyWlLk6GJQsqaUBKTNV-3" value="柯城地灾平台" style="rounded=1;whiteSpace=wrap;html=1;fontSize=12;glass=0;strokeWidth=1;shadow=0;" parent="WIyWlLk6GJQsqaUBKTNV-1" vertex="1">
          <mxGeometry x="30" y="320" width="100" height="70" as="geometry" />
        </mxCell>
        <mxCell id="RebpLqzrNjrWu-su3GIu-8" style="edgeStyle=orthogonalEdgeStyle;rounded=0;orthogonalLoop=1;jettySize=auto;html=1;exitX=1;exitY=0.5;exitDx=0;exitDy=0;" edge="1" parent="WIyWlLk6GJQsqaUBKTNV-1" source="RebpLqzrNjrWu-su3GIu-0" target="RebpLqzrNjrWu-su3GIu-1">
          <mxGeometry relative="1" as="geometry" />
        </mxCell>
        <mxCell id="RebpLqzrNjrWu-su3GIu-9" value="A3 预警事件分拨" style="edgeLabel;html=1;align=center;verticalAlign=middle;resizable=0;points=[];" vertex="1" connectable="0" parent="RebpLqzrNjrWu-su3GIu-8">
          <mxGeometry x="-0.2143" y="1" relative="1" as="geometry">
            <mxPoint as="offset" />
          </mxGeometry>
        </mxCell>
        <mxCell id="RebpLqzrNjrWu-su3GIu-21" style="edgeStyle=orthogonalEdgeStyle;rounded=0;orthogonalLoop=1;jettySize=auto;html=1;entryX=0.5;entryY=1;entryDx=0;entryDy=0;" edge="1" parent="WIyWlLk6GJQsqaUBKTNV-1" source="RebpLqzrNjrWu-su3GIu-0" target="WIyWlLk6GJQsqaUBKTNV-3">
          <mxGeometry relative="1" as="geometry">
            <Array as="points">
              <mxPoint x="350" y="420" />
              <mxPoint x="80" y="420" />
            </Array>
          </mxGeometry>
        </mxCell>
        <mxCell id="RebpLqzrNjrWu-su3GIu-26" value="A7 事件状态通知" style="edgeLabel;html=1;align=center;verticalAlign=middle;resizable=0;points=[];" vertex="1" connectable="0" parent="RebpLqzrNjrWu-su3GIu-21">
          <mxGeometry x="-0.1548" y="-3" relative="1" as="geometry">
            <mxPoint as="offset" />
          </mxGeometry>
        </mxCell>
        <mxCell id="RebpLqzrNjrWu-su3GIu-0" value="衢州事件中心" style="rounded=1;whiteSpace=wrap;html=1;fontSize=12;glass=0;strokeWidth=1;shadow=0;" vertex="1" parent="WIyWlLk6GJQsqaUBKTNV-1">
          <mxGeometry x="300" y="320" width="100" height="70" as="geometry" />
        </mxCell>
        <mxCell id="RebpLqzrNjrWu-su3GIu-14" style="edgeStyle=orthogonalEdgeStyle;rounded=0;orthogonalLoop=1;jettySize=auto;html=1;" edge="1" parent="WIyWlLk6GJQsqaUBKTNV-1" source="RebpLqzrNjrWu-su3GIu-1" target="RebpLqzrNjrWu-su3GIu-13">
          <mxGeometry relative="1" as="geometry" />
        </mxCell>
        <mxCell id="RebpLqzrNjrWu-su3GIu-15" value="A4 任务下发" style="edgeLabel;html=1;align=center;verticalAlign=middle;resizable=0;points=[];" vertex="1" connectable="0" parent="RebpLqzrNjrWu-su3GIu-14">
          <mxGeometry x="0.3091" y="-4" relative="1" as="geometry">
            <mxPoint x="-22" y="-4" as="offset" />
          </mxGeometry>
        </mxCell>
        <mxCell id="RebpLqzrNjrWu-su3GIu-24" style="edgeStyle=orthogonalEdgeStyle;rounded=0;orthogonalLoop=1;jettySize=auto;html=1;entryX=0.75;entryY=1;entryDx=0;entryDy=0;" edge="1" parent="WIyWlLk6GJQsqaUBKTNV-1" source="RebpLqzrNjrWu-su3GIu-1" target="RebpLqzrNjrWu-su3GIu-0">
          <mxGeometry relative="1" as="geometry">
            <Array as="points">
              <mxPoint x="580" y="420" />
              <mxPoint x="375" y="420" />
            </Array>
          </mxGeometry>
        </mxCell>
        <mxCell id="RebpLqzrNjrWu-su3GIu-25" value="A6 回退/反馈" style="edgeLabel;html=1;align=center;verticalAlign=middle;resizable=0;points=[];" vertex="1" connectable="0" parent="RebpLqzrNjrWu-su3GIu-24">
          <mxGeometry x="-0.2653" y="3" relative="1" as="geometry">
            <mxPoint as="offset" />
          </mxGeometry>
        </mxCell>
        <mxCell id="RebpLqzrNjrWu-su3GIu-1" value="基层四平台" style="rounded=1;whiteSpace=wrap;html=1;fontSize=12;glass=0;strokeWidth=1;shadow=0;" vertex="1" parent="WIyWlLk6GJQsqaUBKTNV-1">
          <mxGeometry x="540" y="320" width="100" height="70" as="geometry" />
        </mxCell>
        <mxCell id="RebpLqzrNjrWu-su3GIu-22" style="edgeStyle=orthogonalEdgeStyle;rounded=0;orthogonalLoop=1;jettySize=auto;html=1;entryX=0.5;entryY=1;entryDx=0;entryDy=0;" edge="1" parent="WIyWlLk6GJQsqaUBKTNV-1" source="RebpLqzrNjrWu-su3GIu-13" target="RebpLqzrNjrWu-su3GIu-1">
          <mxGeometry relative="1" as="geometry">
            <Array as="points">
              <mxPoint x="812" y="420" />
              <mxPoint x="590" y="420" />
            </Array>
          </mxGeometry>
        </mxCell>
        <mxCell id="RebpLqzrNjrWu-su3GIu-23" value="A5 反馈信息" style="edgeLabel;html=1;align=center;verticalAlign=middle;resizable=0;points=[];" vertex="1" connectable="0" parent="RebpLqzrNjrWu-su3GIu-22">
          <mxGeometry x="-0.1685" y="2" relative="1" as="geometry">
            <mxPoint as="offset" />
          </mxGeometry>
        </mxCell>
        <mxCell id="RebpLqzrNjrWu-su3GIu-13" value="网格员" style="shape=umlActor;verticalLabelPosition=bottom;verticalAlign=top;html=1;outlineConnect=0;" vertex="1" parent="WIyWlLk6GJQsqaUBKTNV-1">
          <mxGeometry x="797" y="325" width="30" height="60" as="geometry" />
        </mxCell>
        <mxCell id="RebpLqzrNjrWu-su3GIu-16" value="0 灾害预警" style="ellipse;whiteSpace=wrap;html=1;" vertex="1" parent="WIyWlLk6GJQsqaUBKTNV-1">
          <mxGeometry x="-10" y="290" width="70" height="50" as="geometry" />
        </mxCell>
      </root>
    </mxGraphModel>
  </diagram>
</mxfile>
